<svg width="20" height="20" viewBox="0 0 20 20" fill="none" xmlns="http://www.w3.org/2000/svg">
<path d="M19.2835 10.404L18.6741 9.79467C18.1695 9.28931 17.5308 8.93904 16.8334 8.7853C16.752 8.587 16.6573 8.39444 16.5499 8.20893C16.5053 7.79628 16.3443 7.4048 16.0857 7.08016C16.2223 6.74799 16.275 6.38728 16.239 6.02992C16.2031 5.67256 16.0797 5.32956 15.8797 5.03124C15.6796 4.73292 15.4092 4.48847 15.0923 4.31951C14.7753 4.15055 14.4217 4.06228 14.0625 4.0625C13.7249 4.06278 13.3919 4.14181 13.0902 4.29332C13.147 3.36428 12.8569 2.44723 12.2761 1.71989L11.494 0.742283C11.4647 0.705687 11.4276 0.676144 11.3854 0.655843C11.3431 0.635541 11.2969 0.625 11.25 0.625C11.2031 0.625 11.1569 0.635541 11.1146 0.655843C11.0724 0.676144 11.0352 0.705687 11.006 0.742283L10.2239 1.71989C9.96038 2.0487 9.75395 2.41942 9.61322 2.81658C9.37434 2.80701 9.13509 2.81531 8.89744 2.84139C8.40615 2.61573 7.87179 2.49926 7.33116 2.5H6.5625C6.47962 2.5 6.40013 2.53293 6.34153 2.59153C6.28292 2.65014 6.25 2.72962 6.25 2.8125V3.67428C6.25 3.78911 6.25536 3.90331 6.26608 4.01688C5.53841 4.66889 5.02917 5.52917 4.80758 6.48077L4.82556 6.4849C4.60657 6.77054 4.4616 7.1059 4.40356 7.46111C4.34553 7.81633 4.37622 8.18039 4.49291 8.52087L3.48114 13.7533C3.40469 13.7423 3.32688 13.7601 3.26281 13.8032C3.19873 13.8464 3.15295 13.9117 3.13434 13.9867L2.86342 15.0703L2.08866 15.3285C2.03812 15.3454 1.99274 15.3749 1.9568 15.4142C1.92087 15.4535 1.89559 15.5014 1.88335 15.5532C1.87111 15.605 1.87233 15.6592 1.88688 15.7104C1.90143 15.7616 1.92884 15.8083 1.96651 15.846L2.0766 15.9561L1.54506 16.2218C1.30917 16.3398 1.10469 16.5121 0.948459 16.7246C0.792231 16.9371 0.688731 17.1836 0.646489 17.444C0.604247 17.7043 0.624472 17.9709 0.705497 18.2219C0.786522 18.4729 0.926027 18.701 1.11252 18.8875C1.29901 19.074 1.52714 19.2135 1.77812 19.2945C2.02911 19.3755 2.29575 19.3958 2.55608 19.3535C2.8164 19.3113 3.06297 19.2078 3.27545 19.0515C3.48793 18.8953 3.66024 18.6908 3.77818 18.4549L4.04394 17.9234L4.15401 18.0335C4.19168 18.0711 4.23835 18.0986 4.28959 18.1131C4.34083 18.1277 4.39495 18.1289 4.44679 18.1166C4.49864 18.1044 4.54649 18.0791 4.58582 18.0432C4.62514 18.0072 4.65463 17.9619 4.67147 17.9113L4.92973 17.1366L6.01329 16.8657C6.08824 16.847 6.15362 16.8013 6.19674 16.7372C6.23986 16.6731 6.25767 16.5953 6.2467 16.5189L12.4875 15.3121C13.1095 15.3092 13.7247 15.1829 14.2976 14.9405L14.2955 14.9356C14.7539 15.2077 15.2651 15.3789 15.7949 15.4377L17.0392 15.576C17.0858 15.5812 17.1329 15.5758 17.1772 15.5603C17.2214 15.5448 17.2616 15.5195 17.2947 15.4864C17.3279 15.4532 17.3531 15.4131 17.3686 15.3688C17.3841 15.3246 17.3895 15.2775 17.3843 15.2309L17.2461 13.9866C17.1855 13.4362 17.0034 12.9062 16.7128 12.4349C16.7259 12.4327 16.7391 12.431 16.7522 12.4287C17.5057 12.2944 18.1997 11.9316 18.74 11.3895L19.2835 10.846C19.3421 10.7874 19.375 10.7079 19.375 10.625C19.375 10.5421 19.3421 10.4626 19.2835 10.404ZM11.5695 5.96382C11.3054 6.23072 11.1146 6.56111 11.0153 6.92318C10.916 7.28524 10.9117 7.66678 11.0027 8.03102C11.0936 8.39526 11.2769 8.72993 11.5347 9.00279C11.7926 9.27565 12.1164 9.4775 12.4749 9.5889C12.2816 9.65411 12.079 9.68741 11.875 9.6875C11.8287 9.6875 11.7822 9.6852 11.7359 9.68183C11.4678 9.5222 11.1685 9.42205 10.8583 9.38815C10.7812 9.33826 10.7079 9.28279 10.6389 9.22218C10.8716 8.82527 10.9724 8.36481 10.9268 7.907C10.8812 7.4492 10.6917 7.01763 10.3854 6.67436C10.6761 6.29634 11.0992 6.04246 11.5695 5.96382ZM12.1875 13.4375C12.081 13.4375 11.9752 13.4194 11.8747 13.3838C12.0285 13.3296 12.1654 13.2362 12.272 13.1129C12.3786 12.9895 12.4512 12.8405 12.4825 12.6805C12.5139 12.5205 12.5029 12.3551 12.4507 12.2007C12.3986 12.0462 12.307 11.9081 12.185 11.7999C12.1804 11.7201 12.168 11.6409 12.1482 11.5634C12.1613 11.5629 12.1743 11.5625 12.1875 11.5625C12.4361 11.5625 12.6746 11.6613 12.8504 11.8371C13.0262 12.0129 13.125 12.2514 13.125 12.5C13.125 12.7486 13.0262 12.9871 12.8504 13.1629C12.6746 13.3387 12.4361 13.4375 12.1875 13.4375ZM5.9375 9.0625C5.9375 9.0265 5.93903 8.9907 5.94145 8.95504C6.13489 9.1731 6.3985 9.31664 6.68663 9.36079C6.83119 9.70158 7.09212 9.97993 7.42288 10.1462C7.75363 10.3124 8.13269 10.3558 8.49243 10.2684C8.26387 10.4568 7.98647 10.5763 7.69258 10.613C7.39868 10.6497 7.10042 10.602 6.83258 10.4756C6.56475 10.3492 6.33838 10.1492 6.1799 9.89898C6.02141 9.64878 5.93734 9.35867 5.9375 9.0625ZM8.125 7.8125C8.26153 7.81251 8.39642 7.84235 8.52022 7.89992C8.64402 7.9575 8.75376 8.04142 8.84175 8.14582C8.92974 8.25022 8.99387 8.37258 9.02964 8.50434C9.06542 8.63611 9.07199 8.77409 9.04888 8.90866C9.02577 9.04323 8.97355 9.17112 8.89587 9.2834C8.81819 9.39569 8.71691 9.48964 8.59914 9.55871C8.48136 9.62778 8.34991 9.67028 8.21399 9.68326C8.07808 9.69623 7.94097 9.67936 7.81225 9.63383C7.966 9.57963 8.10294 9.48623 8.20954 9.36288C8.31613 9.23953 8.38869 9.09049 8.42002 8.93051C8.45136 8.77052 8.44041 8.60513 8.38823 8.45067C8.33606 8.29622 8.24447 8.15806 8.12253 8.04985C8.11787 7.97005 8.10553 7.89088 8.08568 7.81345C8.09875 7.81291 8.11183 7.8125 8.125 7.8125ZM7.5 8.4375C7.5618 8.4375 7.62222 8.45583 7.67361 8.49017C7.725 8.5245 7.76506 8.57331 7.78871 8.63041C7.81236 8.68751 7.81855 8.75035 7.80649 8.81097C7.79443 8.87159 7.76467 8.92727 7.72097 8.97097C7.67726 9.01468 7.62158 9.04444 7.56096 9.0565C7.50034 9.06855 7.43751 9.06237 7.38041 9.03871C7.32331 9.01506 7.2745 8.97501 7.24016 8.92362C7.20582 8.87223 7.1875 8.81181 7.1875 8.75C7.18759 8.66715 7.22054 8.58772 7.27913 8.52913C7.33771 8.47055 7.41714 8.4376 7.5 8.4375ZM6.56632 8.66776C6.48266 8.62028 6.41109 8.55413 6.3572 8.47444C6.30331 8.39476 6.26856 8.30371 6.25565 8.20839C6.24274 8.11307 6.25202 8.01605 6.28277 7.9249C6.31352 7.83376 6.3649 7.75095 6.43292 7.68293C6.50094 7.61491 6.58375 7.56352 6.6749 7.53277C6.76604 7.50202 6.86306 7.49274 6.95838 7.50565C7.05371 7.51856 7.14476 7.55332 7.22444 7.60721C7.30412 7.6611 7.37028 7.73266 7.41775 7.81632C7.19853 7.83592 6.99317 7.93192 6.83754 8.08755C6.68192 8.24318 6.58592 8.44854 6.56632 8.66776ZM9.70773 11.6525C9.54166 11.9173 9.4347 12.2148 9.39415 12.5248C9.25736 12.3499 9.15942 12.1479 9.10685 11.9322C9.05428 11.7165 9.04829 11.492 9.08927 11.2738C9.13026 11.0556 9.21729 10.8487 9.34455 10.6668C9.47181 10.4848 9.63638 10.3321 9.8273 10.2188C10.0182 10.1055 10.2311 10.0342 10.4518 10.0096C10.6724 9.98502 10.8958 10.0078 11.1069 10.0763C11.3181 10.1448 11.5123 10.2576 11.6764 10.4071C11.8406 10.5565 11.971 10.7393 12.059 10.9431C11.9757 10.9497 11.8931 10.9631 11.812 10.983C11.65 10.8238 11.4476 10.7118 11.2267 10.6591C11.0057 10.6064 10.7746 10.6149 10.5582 10.6838C10.3417 10.7527 10.1481 10.8792 9.9983 11.0499C9.84845 11.2206 9.74799 11.4289 9.70773 11.6525H9.70773ZM11.5625 12.8125C11.5007 12.8125 11.4403 12.7942 11.3889 12.7598C11.3375 12.7255 11.2974 12.6767 11.2738 12.6196C11.2501 12.5625 11.2439 12.4997 11.256 12.439C11.2681 12.3784 11.2978 12.3227 11.3415 12.279C11.3852 12.2353 11.4409 12.2056 11.5015 12.1935C11.5621 12.1814 11.625 12.1876 11.6821 12.2113C11.7392 12.2349 11.788 12.275 11.8223 12.3264C11.8567 12.3778 11.875 12.4382 11.875 12.5C11.8749 12.5829 11.8419 12.6623 11.7834 12.7209C11.7248 12.7795 11.6453 12.8124 11.5625 12.8125ZM10.9375 11.25C11.0478 11.2501 11.1562 11.2795 11.2515 11.335C11.3468 11.3906 11.4258 11.4704 11.4803 11.5663C11.261 11.5859 11.0557 11.6819 10.9 11.8376C10.7444 11.9932 10.6484 12.1985 10.6288 12.4178C10.5089 12.3497 10.4148 12.2438 10.3613 12.1167C10.3079 11.9896 10.298 11.8483 10.3332 11.7149C10.3685 11.5816 10.4469 11.4637 10.5562 11.3796C10.6655 11.2955 10.7996 11.2499 10.9375 11.25ZM13.125 9.0625C12.8288 9.06265 12.5387 8.97858 12.2885 8.8201C12.0383 8.66161 11.8383 8.43525 11.7119 8.16741C11.5855 7.89958 11.5378 7.60131 11.5745 7.30742C11.6112 7.01353 11.7307 6.73612 11.919 6.50757C11.8317 6.86731 11.8751 7.24636 12.0413 7.57711C12.2076 7.90786 12.4859 8.16879 12.8267 8.31335C12.8708 8.60149 13.0144 8.86511 13.2325 9.05854C13.1968 9.06097 13.161 9.0625 13.125 9.0625ZM13.4375 7.8125C13.3757 7.8125 13.3153 7.79417 13.2639 7.75984C13.2125 7.7255 13.1724 7.67669 13.1488 7.61959C13.1251 7.56249 13.1189 7.49965 13.131 7.43903C13.1431 7.37842 13.1728 7.32273 13.2165 7.27903C13.2602 7.23533 13.3159 7.20556 13.3765 7.19351C13.4371 7.18145 13.5 7.18764 13.5571 7.21129C13.6142 7.23494 13.663 7.27499 13.6973 7.32639C13.7317 7.37778 13.75 7.43819 13.75 7.5C13.7499 7.58285 13.7169 7.66228 13.6584 7.72087C13.5998 7.77945 13.5203 7.81241 13.4375 7.8125ZM14.0625 8.75C13.9522 8.74988 13.8438 8.72054 13.7485 8.66498C13.6532 8.60943 13.5742 8.52962 13.5197 8.43368C13.739 8.41408 13.9443 8.31808 14.0999 8.16245C14.2556 8.00682 14.3516 7.80146 14.3712 7.58225C14.4911 7.65031 14.5852 7.75618 14.6387 7.88331C14.6921 8.01045 14.702 8.15171 14.6668 8.28505C14.6315 8.4184 14.5531 8.53632 14.4438 8.62043C14.3345 8.70454 14.2004 8.7501 14.0625 8.75ZM14.3741 6.91431C14.2966 6.89447 14.2174 6.88213 14.1376 6.87747C14.0294 6.75553 13.8913 6.66394 13.7368 6.61177C13.5824 6.55959 13.417 6.54863 13.257 6.57997C13.097 6.61131 12.948 6.68386 12.8246 6.79046C12.7013 6.89705 12.6079 7.034 12.5537 7.18775C12.5081 7.05903 12.4912 6.92191 12.5042 6.78598C12.5172 6.65005 12.5597 6.5186 12.6287 6.40081C12.6978 6.28302 12.7918 6.18174 12.9041 6.10405C13.0163 6.02636 13.1442 5.97413 13.2788 5.95102C13.4134 5.92791 13.5514 5.93448 13.6832 5.97026C13.8149 6.00605 13.9373 6.07018 14.0417 6.15818C14.1461 6.24618 14.23 6.35593 14.2876 6.47975C14.3452 6.60356 14.375 6.73846 14.375 6.875C14.375 6.88815 14.3746 6.90125 14.3741 6.91431ZM10.3125 8.125C10.3116 8.3724 10.2522 8.61607 10.1393 8.8362C10.0264 9.05632 9.86308 9.24667 9.66268 9.39175C9.67921 9.28278 9.6875 9.17272 9.6875 9.0625C9.6875 9.0063 9.68485 8.9499 9.68059 8.89408C9.68496 8.8466 9.6875 8.7986 9.6875 8.75C9.6871 8.43464 9.59142 8.12675 9.41301 7.86671C9.23459 7.60666 8.98177 7.4066 8.68767 7.29274C8.62739 7.04793 8.52475 6.81556 8.38439 6.60612C8.61412 6.55065 8.85343 6.54805 9.08431 6.59851C9.31519 6.64896 9.5316 6.75116 9.71724 6.8974C9.90288 7.04364 10.0529 7.23011 10.156 7.44276C10.2591 7.6554 10.3126 7.88868 10.3125 8.125ZM7.99652 7.19309C7.91323 7.19972 7.83062 7.21305 7.74949 7.23297C7.58746 7.0738 7.38509 6.96182 7.16416 6.9091C6.94322 6.85639 6.7121 6.86492 6.49566 6.93378C6.27921 7.00265 6.08565 7.12924 5.9358 7.29993C5.78595 7.47062 5.68549 7.67895 5.64523 7.90248C5.47916 8.1673 5.3722 8.46484 5.33164 8.77478C5.19486 8.59991 5.09692 8.39789 5.04435 8.18218C4.99178 7.96648 4.98579 7.74205 5.02677 7.52385C5.06776 7.30565 5.15479 7.09869 5.28205 6.91676C5.40931 6.73484 5.57388 6.58213 5.7648 6.46881C5.95572 6.3555 6.16861 6.28417 6.38926 6.2596C6.60991 6.23502 6.83327 6.25776 7.04444 6.32629C7.25562 6.39483 7.44976 6.50759 7.61393 6.65705C7.7781 6.80652 7.90852 6.98926 7.99652 7.19309H7.99652ZM7.5 11.25C7.85205 11.2503 8.19891 11.165 8.51072 11.0015C8.43637 11.2816 8.41841 11.5737 8.45789 11.8607C8.49737 12.1478 8.59351 12.4242 8.74071 12.6738L7.30802 11.2411C7.37134 11.2466 7.43526 11.25 7.5 11.25ZM9.10961 13.9265C9.58199 14.4006 10.1498 14.7688 10.7754 15.0066L5.78794 15.971L4.6607 14.8438L7.34375 12.1607L9.10961 13.9265ZM11.5625 14.375C11.1482 14.3745 10.7511 14.2098 10.4582 13.9168C10.1652 13.6239 10.0005 13.2268 10 12.8125C10 12.7765 10.0015 12.7407 10.004 12.705C10.1974 12.9231 10.461 13.0666 10.7491 13.1108C10.8937 13.4516 11.1546 13.7299 11.4854 13.8962C11.8161 14.0624 12.1952 14.1058 12.5549 14.0184C12.2757 14.2492 11.9247 14.3754 11.5625 14.375ZM13.7431 12.6441C13.7475 12.5966 13.75 12.5486 13.75 12.5C13.7496 12.1846 13.6539 11.8768 13.4755 11.6167C13.2971 11.3567 13.0443 11.1566 12.7502 11.0427C12.6899 10.7979 12.5873 10.5656 12.4469 10.3561C12.7989 10.2711 13.1695 10.3111 13.4952 10.4692C13.821 10.6273 14.0817 10.8936 14.2327 11.2227C14.3837 11.5518 14.4157 11.9232 14.3231 12.2733C14.2305 12.6233 14.0192 12.9303 13.7252 13.1417C13.7417 13.0328 13.75 12.9227 13.75 12.8125C13.75 12.7563 13.7474 12.6999 13.7431 12.6441ZM14.375 10C14.0262 10 13.6874 9.88327 13.4127 9.66836C13.7227 9.62782 14.0202 9.52085 14.285 9.35477C14.5085 9.31452 14.7169 9.21405 14.8876 9.0642C15.0583 8.91435 15.1848 8.72079 15.2537 8.50434C15.3226 8.2879 15.3311 8.05677 15.2784 7.83583C15.2257 7.6149 15.1137 7.41253 14.9545 7.2505C14.9744 7.16937 14.9878 7.08676 14.9944 7.00348C15.3244 7.14594 15.5952 7.39786 15.7611 7.71675C15.9271 8.03564 15.9779 8.40199 15.9052 8.75402C15.8324 9.10604 15.6404 9.42221 15.3617 9.64918C15.083 9.87616 14.7345 10.0001 14.375 10ZM15.625 6.25C15.6248 6.37315 15.6102 6.49586 15.5814 6.61559C15.3719 6.47524 15.1396 6.3726 14.8948 6.31232C14.7809 6.01823 14.5808 5.7654 14.3208 5.58699C14.0607 5.40857 13.7529 5.3129 13.4375 5.3125C13.3889 5.3125 13.3408 5.31504 13.2933 5.31941C13.2374 5.31515 13.181 5.3125 13.125 5.3125C13.0148 5.31249 12.9047 5.32079 12.7957 5.33732C12.9887 5.069 13.2618 4.86883 13.5758 4.76561C13.8897 4.66239 14.2283 4.66145 14.5429 4.76291C14.8574 4.86438 15.1316 5.06302 15.3261 5.33025C15.5205 5.59748 15.6252 5.91951 15.625 6.25ZM10.7119 2.11033L11.25 1.43774L11.7881 2.11033C12.0938 2.49328 12.3055 2.94267 12.4059 3.42232C12.5063 3.90198 12.4927 4.39851 12.3661 4.87196C12.2536 5.00967 12.1583 5.16064 12.0823 5.32149C12.0134 5.31582 11.9442 5.3125 11.875 5.3125C11.7705 5.31258 11.6661 5.31926 11.5625 5.33252V3.125H10.9375V5.49643C10.7864 5.5578 10.6416 5.63369 10.5051 5.72303C10.1591 5.17431 9.993 4.53123 10.0301 3.88357C10.0671 3.2359 10.3055 2.61597 10.7119 2.11033ZM6.875 3.125H7.33116C8.09476 3.1237 8.83214 3.40343 9.40276 3.91087C9.38077 4.45231 9.47693 4.99205 9.68454 5.49259L8.28586 4.09392L7.84389 4.53585L9.32189 6.01384C8.88462 5.89498 8.42119 5.91532 7.99602 6.07206C7.64601 5.77797 7.36438 5.41107 7.17076 4.99694C6.97714 4.58282 6.87621 4.13143 6.875 3.67428V3.125ZM6.40963 4.75145C6.50387 5.06344 6.63798 5.36198 6.80865 5.63964C6.43155 5.5955 6.04947 5.65155 5.70093 5.80212C5.88198 5.41768 6.121 5.06332 6.40963 4.75145ZM5.07307 9.41452C5.30943 9.96572 5.64897 10.4667 6.07341 10.8904L6.90179 11.7188L4.21875 14.4018L4.029 14.2121L4.97537 9.31784C5.00684 9.35102 5.03941 9.38325 5.07307 9.41452ZM1.8246 16.7808L2.54246 16.4219L2.55317 16.4326L1.39904 18.2463C1.32506 18.1235 1.2773 17.9867 1.25874 17.8446C1.24018 17.7025 1.25124 17.5581 1.29121 17.4204C1.33118 17.2828 1.39921 17.1549 1.491 17.0448C1.5828 16.9348 1.69638 16.8449 1.8246 16.7808ZM3.21918 18.1754C3.10024 18.4135 2.89442 18.5969 2.64418 18.6877C2.39395 18.7785 2.11841 18.7698 1.87444 18.6633L3.00587 16.8853L3.57809 17.4575L3.21918 18.1754ZM4.6117 16.5718C4.5607 16.5846 4.51374 16.61 4.47516 16.6457C4.43659 16.6814 4.40765 16.7263 4.39102 16.7762L4.23843 17.234L2.76599 15.7616L3.22383 15.609C3.2737 15.5923 3.31857 15.5634 3.35429 15.5248C3.39 15.4863 3.41541 15.4393 3.42815 15.3883L3.60679 14.6738L5.32627 16.3932L4.6117 16.5718ZM12.7002 14.6801C12.9435 14.5312 13.1556 14.3364 13.3247 14.1067C13.4398 14.2453 13.5647 14.3754 13.6985 14.496C13.3747 14.5988 13.0394 14.6606 12.7002 14.6801ZM15.864 14.8165C15.0961 14.7312 14.387 14.3644 13.8738 13.7869C14.1402 13.6374 14.3727 13.4342 14.5565 13.1901L15.306 13.9396L15.7479 13.4976L14.8682 12.6179C14.9044 12.5185 14.9333 12.4166 14.9547 12.3129C15.2897 12.4196 15.638 12.4783 15.9894 12.4872C16.3421 12.9412 16.562 13.4841 16.6249 14.0556L16.72 14.9117L15.864 14.8165ZM18.298 10.9476C17.8723 11.3701 17.3346 11.6619 16.7483 11.7888C16.1621 11.9156 15.5518 11.872 14.9896 11.6632C14.9653 11.4114 14.8973 11.1658 14.7885 10.9375H16.875V10.3125H15.5004C15.8803 10.0834 16.1822 9.74475 16.3664 9.34107C17.0722 9.41819 17.7305 9.73415 18.2322 10.2366L18.6206 10.625L18.298 10.9476Z" fill="#7E9876"/>
</svg>
