<svg width="17" height="25" viewBox="0 0 17 25" fill="none" xmlns="http://www.w3.org/2000/svg">
<path d="M16.1052 4.17327C16.3637 3.31776 16.2232 2.36642 15.7196 1.56307C15.1521 0.657819 14.203 0.0611208 13.2427 0.00579996C11.7946 -0.0772996 11.0377 0.745225 10.4578 1.65998C9.72544 1.41438 8.93715 1.28017 8.11602 1.28017C7.29398 1.28017 6.50487 1.41466 5.77177 1.66079C5.45635 1.16602 5.12188 0.742244 4.69015 0.443635C4.53842 0.338624 4.33737 0.387698 4.24105 0.553235C4.14482 0.718772 4.18981 0.938068 4.34158 1.04308C4.63973 1.24936 4.89289 1.55043 5.13442 1.90895C3.58314 2.59973 2.34424 3.81177 1.67614 5.30293C1.26401 4.97076 0.924553 4.54509 0.744976 3.95104C0.547525 3.29789 0.655731 2.59216 1.04964 1.9638C1.50515 1.2372 2.2615 0.758618 3.02298 0.714749L3.05075 0.713282C3.23032 0.70448 3.36929 0.538612 3.36122 0.342789C3.35315 0.146965 3.20095 -0.00437453 3.02159 0.00414365L2.98923 0.00584729C2.02904 0.0611208 1.07996 0.657819 0.512468 1.56307C0.00888242 2.36642 -0.131689 3.31776 0.126894 4.17323C0.305819 4.7651 0.612127 5.25768 1.06335 5.67905C1.1735 5.78193 1.29217 5.8797 1.42055 5.97501C1.23381 6.56584 1.13307 7.19103 1.13307 7.83803C1.13307 9.313 1.65466 10.6754 2.53323 11.772C1.72633 12.4102 1.20366 13.2344 1.04777 14.1278C0.888412 15.041 1.16331 15.9216 1.82274 16.6257C1.76104 16.9726 1.7092 17.3885 1.68859 17.867C1.66828 18.3378 1.68147 18.7993 1.72039 19.2481C1.11107 19.7638 0.721548 20.5462 0.721548 21.4208C0.721548 22.9461 1.90595 24.1905 3.37545 24.2283C3.38348 24.229 12.8458 24.229 12.8524 24.2286C13.4793 24.2133 14.0833 23.9756 14.5596 23.5542C14.6992 23.4307 14.7205 23.2072 14.6073 23.055C14.4941 22.9028 14.2893 22.8794 14.1496 23.0029C13.7726 23.3365 13.289 23.5202 12.788 23.5202C11.6456 23.5202 10.7163 22.5785 10.7163 21.4208C10.7163 21.2537 10.7358 21.0911 10.7724 20.9352C11.0721 20.6755 11.3421 20.4361 11.5431 20.2479C11.8365 19.9734 12.1004 19.6809 12.334 19.3724C12.4802 19.3391 12.6321 19.3214 12.788 19.3214C13.9303 19.3214 14.8597 20.2632 14.8597 21.4208C14.8597 21.5533 14.8475 21.6857 14.8234 21.8143C14.7875 22.0064 14.9011 22.1938 15.0772 22.233C15.2535 22.272 15.4252 22.1482 15.4611 21.9562C15.4939 21.781 15.5105 21.6009 15.5105 21.4208C15.5105 20.5455 15.1204 19.7625 14.5102 19.247C14.5554 18.7266 14.5606 18.2627 14.5435 17.867C14.5232 17.3945 14.4723 16.9831 14.4117 16.6388C15.0673 15.9384 15.3417 15.0622 15.1856 14.1521C15.031 13.2508 14.5063 12.4217 13.6928 11.7796C14.575 10.6817 15.099 9.31641 15.099 7.83808C15.099 7.19074 14.9981 6.56518 14.8112 5.97406C15.3683 5.55899 15.8555 4.99916 16.1052 4.17327ZM1.68711 14.2606C1.85246 13.313 2.50516 12.6568 2.99226 12.2876C3.21861 12.5172 3.46227 12.7316 3.72098 12.9292C3.66887 12.9771 3.61763 13.0262 3.56848 13.0778C3.45008 13.2022 3.26521 13.3649 3.2321 13.5543C3.20698 13.6828 3.24807 13.8214 3.3492 13.9079C3.41406 13.9634 3.49216 13.9874 3.56843 13.9826C3.95271 14.0442 4.34514 14.1551 4.73605 14.3138C5.35161 14.5636 6.19166 14.9841 6.37992 15.7483C6.51281 16.2876 6.18745 16.9336 5.6974 17.1034C4.70386 17.4478 3.24534 17.0594 2.377 16.2193C1.97429 15.8297 1.52775 15.1737 1.68711 14.2606ZM3.40239 18.6127C3.02701 18.6186 2.66994 18.7031 2.3458 18.8512C2.32732 18.5164 2.3265 18.2113 2.337 17.9408C2.34854 17.6434 2.37344 17.3724 2.40537 17.1296C2.56009 17.2387 2.72296 17.3378 2.89178 17.4263C2.97708 17.6929 3.07318 17.9357 3.16841 18.1472C3.23961 18.3054 3.31788 18.4605 3.40239 18.6127ZM3.44405 23.5203C2.30168 23.5203 1.3723 22.5785 1.3723 21.4209C1.3723 20.2633 2.30168 19.3215 3.44405 19.3215C3.60024 19.3215 3.75222 19.3397 3.89856 19.3732C4.13207 19.6814 4.39581 19.9736 4.68893 20.2479C4.88998 20.4361 5.16002 20.6756 5.45973 20.9353C5.4964 21.0911 5.51583 21.2537 5.51583 21.4208C5.51579 22.5785 4.58645 23.5203 3.44405 23.5203ZM10.9817 23.5203H5.25039C5.78561 23.0295 6.1324 22.3249 6.16372 21.5374C6.7753 22.055 7.38952 22.5633 7.74021 22.852C7.85085 22.9431 7.98339 22.9887 8.11602 22.9887C8.24861 22.9887 8.3812 22.9431 8.49188 22.852C8.84253 22.5633 9.45671 22.0551 10.0683 21.5374C10.0997 22.3249 10.4464 23.0295 10.9817 23.5203ZM12.4796 17.8343C12.1688 18.5244 11.7111 19.1553 11.1192 19.7093C10.3882 20.3936 8.65692 21.8265 8.11598 22.2721C7.57491 21.8264 5.84375 20.3936 5.11273 19.7093C4.52085 19.1553 4.06321 18.5245 3.75239 17.8343C3.74198 17.8111 3.73157 17.7865 3.72111 17.7626C4.11076 17.8771 4.50975 17.9378 4.89376 17.9378C5.24619 17.9378 5.58616 17.8868 5.89438 17.78C6.709 17.4977 7.22951 16.4622 7.00832 15.5642C6.74202 14.4832 5.71341 13.9532 4.96287 13.6486C4.71613 13.5484 4.46835 13.4658 4.22149 13.3998C4.65991 13.0299 5.20874 12.8217 5.76474 12.8217H5.77073C6.56787 12.8239 7.30006 13.2229 7.77961 13.9165C7.85887 14.0311 7.98461 14.0995 8.11594 14.0995C8.24727 14.0995 8.373 14.0311 8.45231 13.9164C8.93182 13.2228 9.66401 12.8238 10.4611 12.8217H10.4671C11.0286 12.8217 11.5831 13.0337 12.0237 13.4106C11.7733 13.4761 11.522 13.5587 11.2717 13.6593C10.7316 13.8764 10.0476 14.2094 9.60548 14.7806C9.4325 15.0041 9.29652 15.2641 9.22077 15.5679C8.99698 16.4652 9.51454 17.5024 10.3283 17.7875C10.64 17.8967 10.984 17.9488 11.3411 17.9488C11.7223 17.9488 12.1181 17.8891 12.5049 17.7764C12.4965 17.7958 12.488 17.8155 12.4796 17.8343ZM13.8854 18.8509C13.5615 18.703 13.2047 18.6186 12.8297 18.6127C12.9142 18.4605 12.9925 18.3054 13.0637 18.1472C13.157 17.9399 13.2514 17.7028 13.3354 17.4425C13.5061 17.3536 13.6709 17.2537 13.8271 17.1438C13.8872 17.6121 13.9209 18.1862 13.8854 18.8509ZM14.5459 14.2827C14.7026 15.1963 14.2541 15.8509 13.8504 16.239C12.9796 17.0762 11.52 17.4595 10.5274 17.1117C10.0378 16.9402 9.71438 16.2932 9.84879 15.7542C10.0393 14.9907 10.8805 14.5731 11.4967 14.3254C11.9087 14.1598 12.3222 14.0465 12.726 13.9885C12.8232 13.9746 12.9109 13.912 12.9618 13.8206C13.0345 13.6899 13.0243 13.5295 12.938 13.4095C12.8536 13.292 12.7612 13.1805 12.6635 13.0779C12.6144 13.0263 12.5632 12.9772 12.5111 12.9293C12.7671 12.7338 13.0083 12.5217 13.2327 12.2947C13.732 12.6722 14.3828 13.3317 14.5459 14.2827ZM11.9285 12.504C11.4793 12.2499 10.9755 12.1119 10.4672 12.1119C10.4647 12.1119 10.4621 12.1119 10.4596 12.1119C9.55372 12.1143 8.71445 12.5243 8.11602 13.247C7.51759 12.5243 6.67828 12.1143 5.77242 12.1119C5.76986 12.1119 5.76743 12.1119 5.76487 12.1119C5.2566 12.1119 4.75288 12.2499 4.30375 12.5038C2.77429 11.4353 1.78386 9.74166 1.78386 7.83803C1.78386 4.61338 4.62446 1.98997 8.11602 1.98997C11.6076 1.98997 14.4482 4.61338 14.4482 7.83803C14.4482 9.74166 13.4579 11.4354 11.9285 12.504ZM14.5544 5.29947C13.886 3.80988 12.6478 2.59921 11.0978 1.90895C11.6375 1.10715 12.1906 0.656116 13.2085 0.714655C13.9705 0.758523 14.7269 1.23715 15.1824 1.96375C15.5763 2.59211 15.6845 3.29784 15.487 3.951C15.3574 4.37993 15.141 4.83234 14.5544 5.29947Z" fill="#7E9876"/>
</svg>
