<svg width="22" height="21" viewBox="0 0 22 21" fill="none" xmlns="http://www.w3.org/2000/svg">
<path d="M21.9346 11.7581C21.88 11.6539 21.7436 11.6018 21.6345 11.5758C21.007 11.5758 15.6052 11.3675 15.6052 5.37785C15.6052 5.19556 15.4415 5.03931 15.2505 5.03931C15.0595 5.03931 14.8958 5.19556 14.8958 5.37785C14.8958 11.3675 9.49402 11.5758 8.89382 11.5758C8.81197 11.5758 8.73013 11.6018 8.67556 11.6539C8.621 11.68 8.59372 11.7321 8.56644 11.7581C8.51187 11.8623 8.51187 11.9925 8.56644 12.0966C8.621 12.2008 8.75741 12.2789 8.89382 12.2789C8.89382 12.2789 8.89382 12.2789 8.9211 12.2789C9.54858 12.2789 14.9231 12.4873 14.9231 18.4769C14.9231 18.6592 15.0868 18.8154 15.2778 18.8154C15.4688 18.8154 15.6325 18.6592 15.6325 18.4769C15.6325 12.5133 21.007 12.2789 21.6345 12.2789C21.7709 12.2789 21.88 12.2008 21.9619 12.0966C22.0164 11.9925 22.0164 11.8623 21.9346 11.7581ZM15.2505 15.9248C14.4593 13.4508 12.5223 12.3831 10.9945 11.9143C12.5223 11.4456 14.4593 10.3779 15.2505 7.90391C16.0417 10.3779 17.9787 11.4456 19.5065 11.9143C17.9787 12.3831 16.0417 13.4508 15.2505 15.9248Z" fill="white"/>
<path d="M10.7491 4.98717C10.9401 4.98717 11.1038 4.83092 11.1038 4.62258C11.1038 4.44029 10.9401 4.28404 10.7491 4.28404C10.4217 4.28404 7.47527 4.17987 7.47527 0.898602C7.47527 0.71631 7.31158 0.560059 7.12061 0.560059C6.92964 0.560059 6.76594 0.71631 6.76594 0.898602C6.76594 4.17987 3.8195 4.28404 3.49212 4.28404C3.46483 4.28404 3.46483 4.28404 3.46483 4.28404C3.27386 4.31008 3.13745 4.44029 3.13745 4.62258C3.13745 4.80488 3.30114 4.96113 3.49212 4.96113C3.84678 4.96113 6.76594 5.06529 6.76594 8.34656C6.76594 8.52886 6.92964 8.68511 7.12061 8.68511C7.2843 8.71115 7.44799 8.5549 7.44799 8.37261C7.44799 5.09134 10.3944 4.98717 10.7218 4.98717H10.7491ZM7.09333 6.47155C6.65682 5.48196 5.86564 4.93509 5.12903 4.62258C5.92021 4.31008 6.65682 3.71112 7.09333 2.77361C7.52984 3.7632 8.32101 4.31008 9.05763 4.62258C8.26645 4.93509 7.52984 5.53405 7.09333 6.47155Z" fill="white"/>
<path d="M7.61165 16.0289C7.28427 16.0289 4.33782 15.9247 4.33782 12.6435C4.33782 12.4612 4.17413 12.3049 3.98316 12.3049C3.79219 12.3049 3.62849 12.4612 3.62849 12.6435C3.62849 15.9247 0.682048 16.0289 0.354665 16.0289C0.327383 16.0289 0.327383 16.0289 0.327383 16.0289C0.13641 16.055 0 16.1852 0 16.3675C0 16.5497 0.163691 16.706 0.354665 16.706C0.70933 16.706 3.62849 16.8102 3.62849 20.0914C3.62849 20.2737 3.79219 20.43 3.98316 20.43C4.14685 20.4821 4.31054 20.3258 4.31054 20.1175C4.31054 16.8362 7.25699 16.732 7.58437 16.732H7.61165C7.80263 16.732 7.96632 16.5758 7.96632 16.3675C7.96632 16.1852 7.80263 16.0289 7.61165 16.0289ZM3.95588 18.2425C3.49209 17.2529 2.72819 16.706 1.99158 16.3935C2.78276 16.081 3.51937 15.482 3.95588 14.5445C4.39239 15.5341 5.18356 16.081 5.92018 16.3935C5.129 16.706 4.39239 17.305 3.95588 18.2425Z" fill="white"/>
</svg>
