<svg width="20" height="20" viewBox="0 0 20 20" fill="none" xmlns="http://www.w3.org/2000/svg"><path d="M19.284 10.404l-.61-.61a3.738 3.738 0 00-1.84-1.009 4.752 4.752 0 00-.284-.576 2.19 2.19 0 00-.464-1.129 2.185 2.185 0 00-2.996-2.787 3.757 3.757 0 00-.814-2.573l-.782-.978a.313.313 0 00-.488 0l-.782.978c-.264.329-.47.7-.61 1.097a4.8 4.8 0 00-.717.024A3.74 3.74 0 007.331 2.5h-.769a.313.313 0 00-.312.313v.861c0 .115.005.23.016.343A4.757 4.757 0 004.808 6.48l.018.004a2.183 2.183 0 00-.333 2.036L3.48 13.753a.312.312 0 00-.347.234l-.27 1.083-.775.258a.313.313 0 00-.122.518l.11.11-.532.266a1.665 1.665 0 102.233 2.233l.266-.532.11.11a.313.313 0 00.517-.122l.259-.774 1.083-.271a.312.312 0 00.234-.347l6.24-1.207a4.701 4.701 0 001.81-.371l-.002-.005c.459.272.97.443 1.5.502l1.244.138a.313.313 0 00.345-.345l-.138-1.244a3.735 3.735 0 00-.533-1.552l.04-.006a3.73 3.73 0 001.987-1.04l.544-.543a.313.313 0 000-.442zm-7.714-4.44a2.186 2.186 0 00.905 3.625 1.88 1.88 0 01-.74.093 2.178 2.178 0 00-.877-.294 1.88 1.88 0 01-.22-.166 2.174 2.174 0 00-.253-2.548 1.884 1.884 0 011.184-.71zm.617 7.473a.937.937 0 01-.312-.053.937.937 0 00.31-1.584 1.245 1.245 0 00-.037-.237h.04a.938.938 0 010 1.874zm-6.25-4.374c0-.037.002-.072.004-.108.194.218.458.362.746.406a1.562 1.562 0 001.805.907 1.562 1.562 0 01-2.555-1.206zm2.188-1.25a.937.937 0 11-.313 1.82.937.937 0 00.31-1.583 1.244 1.244 0 00-.036-.237h.039zm-.625.625a.312.312 0 110 .624.312.312 0 010-.624zm-.934.23a.625.625 0 11.852-.852.939.939 0 00-.852.852zm3.142 2.985a2.172 2.172 0 00-.314.872 1.562 1.562 0 112.665-1.582 1.55 1.55 0 00-.247.04 1.248 1.248 0 00-2.104.67zm1.854 1.16a.312.312 0 110-.625.312.312 0 010 .624zm-.624-1.563a.625.625 0 01.542.316.939.939 0 00-.851.852.625.625 0 01.309-1.168zm2.187-2.188a1.562 1.562 0 01-1.206-2.554 1.562 1.562 0 00.908 1.805c.044.288.187.552.405.746a1.582 1.582 0 01-.107.004zm.313-1.25a.313.313 0 110-.625.313.313 0 010 .625zm.624.938a.625.625 0 01-.542-.316.938.938 0 00.851-.852.625.625 0 01-.309 1.168zm.312-1.836a1.247 1.247 0 00-.236-.037.936.936 0 00-1.584.31.936.936 0 011.734-.707.937.937 0 01.086.434zm-4.062 1.211a1.571 1.571 0 01-.65 1.267 2.195 2.195 0 00.019-.498 1.565 1.565 0 00-.993-1.601 2.162 2.162 0 00-.304-.687 1.562 1.562 0 011.928 1.519zm-2.315-.932c-.084.007-.166.02-.248.04a1.249 1.249 0 00-2.104.67 2.172 2.172 0 00-.313.872 1.562 1.562 0 112.665-1.582zM7.5 11.25c.352 0 .699-.085 1.01-.248a2.187 2.187 0 00.23 1.672L7.309 11.24c.063.006.127.009.192.009zm1.61 2.677a4.72 4.72 0 001.665 1.08l-4.987.964-1.127-1.127 2.683-2.683 1.766 1.766zm2.453.448a1.564 1.564 0 01-1.559-1.67c.193.218.457.362.745.406a1.562 1.562 0 001.806.907c-.28.231-.63.357-.992.357zm2.18-1.73a1.56 1.56 0 00-.993-1.602 2.162 2.162 0 00-.303-.687 1.561 1.561 0 011.278 2.786 2.198 2.198 0 00.018-.498zM14.375 10c-.349 0-.688-.117-.962-.332.31-.04.607-.147.872-.313a1.25 1.25 0 00.67-2.105c.02-.08.033-.163.04-.247a1.562 1.562 0 01-.62 2.997zm1.25-3.75c0 .123-.015.246-.044.366a2.163 2.163 0 00-.686-.304 1.565 1.565 0 00-1.602-.993 2.22 2.22 0 00-.497.018 1.562 1.562 0 012.829.913zm-4.913-4.14l.538-.672.538.672a3.132 3.132 0 01.578 2.762 2.188 2.188 0 00-.284.45 2.529 2.529 0 00-.52.01V3.126h-.624v2.371a2.524 2.524 0 00-.433.227 3.115 3.115 0 01.207-3.613zM6.875 3.125h.456a3.11 3.11 0 012.072.786 3.733 3.733 0 00.282 1.582l-1.4-1.4-.441.443 1.478 1.478a2.18 2.18 0 00-1.326.058 3.143 3.143 0 01-1.121-2.398v-.549zM6.41 4.751c.094.312.228.611.399.889a2.16 2.16 0 00-1.108.162 4.15 4.15 0 01.709-1.05zM5.073 9.415a4.706 4.706 0 001 1.475l.829.829-2.683 2.683-.19-.19.946-4.894c.032.033.064.065.098.097zM1.825 16.78l.717-.36.011.012L1.4 18.246a1.04 1.04 0 01.426-1.465zm1.394 1.394a1.039 1.039 0 01-1.345.488l1.132-1.778.572.572-.359.718zm1.393-1.603a.313.313 0 00-.221.204l-.153.458-1.472-1.472.458-.153a.313.313 0 00.204-.22l.179-.715 1.72 1.72-.715.178zM12.7 14.68c.244-.149.456-.344.625-.573.115.138.24.268.373.389a4.07 4.07 0 01-.998.184zm3.164.136a3.124 3.124 0 01-1.99-1.03c.266-.149.499-.352.682-.596l.75.75.442-.442-.88-.88c.036-.1.065-.201.087-.305a3.72 3.72 0 001.034.174c.353.454.573.997.636 1.569l.095.856-.856-.096zm2.434-3.868a3.144 3.144 0 01-3.308.715 2.172 2.172 0 00-.201-.726h2.086v-.624H15.5c.38-.23.682-.568.866-.972a3.115 3.115 0 011.866.896l.389.388-.323.323z" fill="#7E9876"/></svg>