<svg width="17" height="25" viewBox="0 0 17 25" fill="none" xmlns="http://www.w3.org/2000/svg"><path d="M16.105 4.173c.259-.855.118-1.807-.385-2.61C15.152.658 14.203.061 13.243.006c-1.448-.083-2.205.74-2.785 1.654a7.356 7.356 0 00-2.342-.38c-.822 0-1.611.135-2.344.38-.316-.494-.65-.918-1.082-1.216a.31.31 0 00-.449.11.375.375 0 00.1.49c.299.205.552.506.793.865-1.55.69-2.79 1.903-3.458 3.394A2.701 2.701 0 01.745 3.95c-.197-.653-.09-1.359.305-1.987C1.505 1.237 2.26.759 3.023.714h.028c.18-.01.318-.175.31-.371-.008-.196-.16-.347-.34-.339L2.99.006C2.03.06 1.08.658.512 1.563c-.503.803-.644 1.755-.385 2.61.179.592.485 1.085.936 1.506.11.103.23.2.358.296a6.169 6.169 0 00-.288 1.863c0 1.475.522 2.837 1.4 3.934-.807.638-1.33 1.462-1.485 2.356-.16.913.115 1.794.775 2.498a9.405 9.405 0 00-.134 1.241c-.02.47-.008.932.031 1.381a2.84 2.84 0 00-.998 2.173c0 1.525 1.184 2.77 2.653 2.807h9.477a2.675 2.675 0 001.708-.674.377.377 0 00.047-.499.307.307 0 00-.457-.052 2.053 2.053 0 01-1.362.517c-1.142 0-2.072-.942-2.072-2.1 0-.166.02-.329.056-.485.3-.26.57-.499.771-.687a6.92 6.92 0 00.791-.876c.146-.033.298-.05.454-.05 1.142 0 2.072.941 2.072 2.099 0 .132-.012.265-.037.393-.036.192.078.38.254.419.177.039.348-.085.384-.277.033-.175.05-.355.05-.535a2.84 2.84 0 00-1-2.174c.044-.52.05-.984.033-1.38a9.42 9.42 0 00-.132-1.228c.655-.7.93-1.577.774-2.487-.155-.901-.68-1.73-1.493-2.372a6.268 6.268 0 001.406-3.942c0-.647-.1-1.273-.288-1.864.557-.415 1.044-.975 1.294-1.8zM1.687 14.261c.165-.948.818-1.604 1.305-1.973.227.23.47.444.729.641a3.206 3.206 0 00-.153.149c-.118.124-.303.287-.336.476a.373.373 0 00.117.354c.065.055.143.08.22.075.384.061.776.172 1.167.33.616.25 1.456.671 1.644 1.435.133.54-.193 1.186-.683 1.355-.993.345-2.452-.044-3.32-.884-.403-.39-.85-1.045-.69-1.958zm1.715 4.352c-.375.006-.732.09-1.056.238a9.721 9.721 0 01-.009-.91c.012-.298.036-.569.068-.811.155.109.318.208.487.296a6.757 6.757 0 00.51 1.187zm.042 4.907c-1.142 0-2.072-.942-2.072-2.1 0-1.157.93-2.099 2.072-2.099.156 0 .308.019.455.052.233.308.497.6.79.875.201.188.471.428.77.687.037.156.057.319.057.486 0 1.157-.93 2.1-2.072 2.1zm7.538 0H5.25c.536-.49.882-1.195.914-1.983a158.54 158.54 0 001.576 1.315.59.59 0 00.752 0c.35-.289.965-.797 1.576-1.315.032.788.378 1.492.914 1.983zm1.498-5.686a5.874 5.874 0 01-1.36 1.875c-.732.685-2.463 2.117-3.004 2.563-.541-.446-2.272-1.878-3.003-2.563a5.873 5.873 0 01-1.36-1.875l-.032-.071c.39.114.789.175 1.173.175.352 0 .692-.051 1-.158.815-.282 1.336-1.318 1.114-2.216-.266-1.08-1.295-1.61-2.045-1.915a6.285 6.285 0 00-.742-.25 2.41 2.41 0 011.544-.577h.006c.797.002 1.53.4 2.009 1.095a.414.414 0 00.336.183.413.413 0 00.336-.184c.48-.693 1.212-1.092 2.01-1.094h.005a2.41 2.41 0 011.557.589c-.25.065-.502.148-.752.248-.54.217-1.224.55-1.667 1.122a2.11 2.11 0 00-.384.787c-.224.897.294 1.934 1.107 2.22.312.109.656.16 1.013.16.381 0 .777-.059 1.164-.172l-.025.058zm1.405 1.017a2.635 2.635 0 00-1.055-.238 6.844 6.844 0 00.506-1.17c.17-.09.335-.19.491-.3.06.47.094 1.043.058 1.708zm.66-4.568c.158.913-.29 1.568-.695 1.956-.87.837-2.33 1.22-3.323.873-.49-.172-.813-.819-.678-1.358.19-.763 1.031-1.18 1.648-1.429a5.347 5.347 0 011.229-.336.327.327 0 00.236-.168.385.385 0 00-.024-.412 3.132 3.132 0 00-.427-.48c.256-.195.497-.407.722-.634.499.377 1.15 1.037 1.313 1.988zm-2.617-1.779a2.975 2.975 0 00-1.46-.392h-.008c-.906.002-1.746.412-2.344 1.135-.598-.723-1.438-1.133-2.344-1.135h-.007c-.508 0-1.012.138-1.461.392-1.53-1.069-2.52-2.762-2.52-4.666 0-3.225 2.84-5.848 6.332-5.848s6.332 2.623 6.332 5.848c0 1.904-.99 3.597-2.52 4.666zm2.626-7.205c-.668-1.49-1.906-2.7-3.456-3.39.54-.802 1.093-1.253 2.11-1.194.762.044 1.519.522 1.974 1.249.394.628.502 1.334.305 1.987-.13.429-.346.881-.933 1.348z" fill="#7E9876"/></svg>