<svg width="22" height="21" viewBox="0 0 22 21" fill="none" xmlns="http://www.w3.org/2000/svg"><path d="M21.935 11.758c-.055-.104-.191-.156-.3-.182-.628 0-6.03-.209-6.03-6.198 0-.182-.164-.339-.354-.339-.191 0-.355.157-.355.339 0 5.99-5.402 6.198-6.002 6.198a.318.318 0 00-.218.078c-.055.026-.082.078-.11.104a.37.37 0 000 .339.382.382 0 00.328.182h.027c.628 0 6.002.208 6.002 6.198 0 .182.164.338.355.338.19 0 .354-.156.354-.338 0-5.964 5.375-6.198 6.002-6.198.137 0 .246-.078.328-.182a.308.308 0 00-.027-.339zm-6.684 4.167c-.792-2.474-2.729-3.542-4.256-4.01 1.527-.47 3.464-1.537 4.256-4.011.79 2.474 2.728 3.542 4.255 4.01-1.527.47-3.464 1.537-4.255 4.01zM10.75 4.987a.358.358 0 00.354-.364c0-.183-.164-.339-.355-.339-.327 0-3.274-.104-3.274-3.385A.353.353 0 007.121.56c-.191 0-.355.156-.355.339 0 3.28-2.946 3.385-3.274 3.385h-.027c-.191.026-.328.156-.328.339 0 .182.164.338.355.338.355 0 3.274.104 3.274 3.386 0 .182.164.338.355.338.163.026.327-.13.327-.312 0-3.282 2.946-3.386 3.274-3.386h.027zM7.092 6.472c-.436-.99-1.227-1.537-1.964-1.85a3.598 3.598 0 001.964-1.848c.437.99 1.228 1.536 1.965 1.849a3.598 3.598 0 00-1.965 1.849zm.52 9.557c-.328 0-3.274-.104-3.274-3.386 0-.182-.164-.338-.355-.338-.19 0-.355.156-.355.338 0 3.282-2.946 3.386-3.273 3.386H.327c-.19.026-.327.156-.327.338 0 .183.164.339.355.339.354 0 3.273.104 3.273 3.385 0 .183.164.339.355.339.164.052.328-.104.328-.313 0-3.28 2.946-3.385 3.273-3.385h.028a.358.358 0 00.354-.364.353.353 0 00-.354-.34zm-3.656 2.213c-.464-.99-1.228-1.536-1.964-1.849a3.598 3.598 0 001.964-1.849c.436.99 1.228 1.537 1.964 1.85a3.598 3.598 0 00-1.964 1.849z" fill="#fff"/></svg>